<svg width="23" height="25" viewBox="0 0 23 25" fill="none" xmlns="http://www.w3.org/2000/svg">
<path fill-rule="evenodd" clip-rule="evenodd" d="M6.53152 8.59013C6.48885 8.93804 6.44617 9.30252 6.42057 9.667C5.77189 10.106 5.1659 10.5533 4.60257 11.0007C4.31238 11.2326 4.03072 11.4645 3.76612 11.7048C1.68354 9.64215 0.795882 7.78661 1.36774 6.834C1.87132 5.98907 3.56128 5.74884 5.93406 6.20444C6.02795 5.80683 6.12184 5.42578 6.23279 5.0613C3.35644 4.49801 1.16289 4.87078 0.334982 6.25414C0.113068 6.61862 0.00211027 7.0328 0.00211027 7.47184V7.51325C0.0191806 9.47647 2.00788 12.1024 5.32806 14.5792C5.66947 14.836 6.03648 15.0928 6.41203 15.3496C6.48031 16.1531 6.58274 16.9235 6.71076 17.6441C6.77051 17.9672 6.83026 18.282 6.89854 18.5885C4.02218 19.3091 1.93106 19.1269 1.3592 18.1743C0.855628 17.3294 1.48723 15.7803 3.07478 14.0159L2.24686 13.171C0.283771 15.3247 -0.501465 17.3708 0.326447 18.7624C0.90684 19.7399 2.16151 20.2038 3.85148 20.2038C5.54998 20.2038 7.68377 19.7316 10.0224 18.8121C10.0822 18.7873 10.1419 18.7624 10.2102 18.7376C10.6199 18.5719 11.0296 18.3979 11.4478 18.2074C11.4649 18.1991 11.4819 18.1909 11.499 18.1826C12.2416 18.5139 12.9756 18.8121 13.7011 19.0689C14.0169 19.1849 14.3327 19.2843 14.6399 19.3837C13.8462 22.167 12.6342 23.8403 11.499 23.8403C10.4918 23.8403 9.42495 22.5315 8.64825 20.2949C8.25563 20.4274 7.87155 20.5434 7.48746 20.6428C8.42633 23.3433 9.85171 25 11.499 25C13.8974 25 15.8093 21.5043 16.4665 16.4099C16.5092 16.062 16.5433 15.6975 16.5774 15.3413C17.2517 14.8857 17.8833 14.4135 18.4722 13.9331C18.5064 13.9082 18.5405 13.8834 18.5747 13.8502C18.7966 13.668 19.01 13.4858 19.2233 13.2952C21.3145 15.3496 22.2021 17.2134 21.6303 18.166C21.1608 18.9529 19.616 19.218 17.4992 18.8784C17.3541 18.8535 17.2176 18.8287 17.0725 18.8038C16.9786 19.1932 16.8847 19.5659 16.7737 19.9304C16.953 19.9636 17.1322 19.9967 17.3029 20.0215C17.9772 20.1292 18.6003 20.1872 19.1721 20.1872C20.8877 20.1872 22.1082 19.6985 22.6716 18.7541C23.4226 17.495 22.8764 15.6643 21.1267 13.61C20.222 12.5414 19.0441 11.4645 17.6785 10.4374C17.3285 10.1723 16.9615 9.91551 16.5945 9.65871C16.5262 8.8552 16.4238 8.08482 16.2872 7.35587C16.2275 7.0328 16.1677 6.71803 16.0995 6.41153C16.586 6.28728 17.0554 6.18787 17.5078 6.11332C19.6245 5.77369 21.1694 6.03877 21.6388 6.82571C22.1338 7.65408 21.5278 9.16998 19.9915 10.9013C20.2902 11.1829 20.5634 11.4645 20.8194 11.7379C20.9304 11.6219 21.0328 11.4977 21.1267 11.3817C22.8679 9.32737 23.4226 7.49669 22.6716 6.23758C21.9205 4.97846 20.0171 4.52286 17.3115 4.9619C16.0568 5.1607 14.6826 5.55003 13.2572 6.08019C13.1975 6.10504 13.1463 6.1216 13.0865 6.14645C12.6086 6.32869 12.1306 6.5275 11.6526 6.74288C11.61 6.75944 11.5673 6.78429 11.5246 6.80086C10.7735 6.46123 10.0309 6.15474 9.31399 5.89795C8.99819 5.78197 8.68239 5.68257 8.37512 5.58317C9.1689 2.80815 10.3809 1.13486 11.5161 1.13486C12.5232 1.13486 13.5987 2.45196 14.3754 4.68854C14.768 4.56428 15.1521 4.44831 15.5361 4.34062C14.5717 1.66501 13.1463 0 11.4905 0C9.10061 0 7.1802 3.49569 6.53152 8.59013ZM14.162 8.16766C14.1449 8.15109 14.1193 8.14281 14.1022 8.13453C13.7011 7.91087 13.2914 7.69549 12.8988 7.4884C12.9329 7.47184 12.9671 7.45527 13.0012 7.44698C13.4877 7.24818 13.9742 7.06594 14.4436 6.90855C14.6058 6.85056 14.768 6.80086 14.9216 6.75116C14.9899 7.05765 15.0496 7.36415 15.1094 7.68721C15.1777 8.05997 15.2289 8.44102 15.2801 8.83035C14.9131 8.60669 14.5375 8.38304 14.162 8.16766ZM7.87155 7.72863C7.93129 7.389 7.99104 7.06594 8.06786 6.75116C8.38366 6.85056 8.69946 6.94997 9.0238 7.07422C9.37374 7.19848 9.73222 7.3393 10.0992 7.4884C9.69808 7.69549 9.28839 7.91087 8.88723 8.13453C8.87016 8.14281 8.85309 8.15109 8.83602 8.16766C8.45194 8.38304 8.07639 8.60669 7.70938 8.83035C7.76059 8.4493 7.8118 8.08482 7.87155 7.72863ZM9.4847 15.8797C9.1945 15.7223 8.91284 15.5567 8.63971 15.391C8.26417 15.1673 7.90569 14.9437 7.55575 14.7117C7.50453 14.0076 7.47893 13.2704 7.47893 12.5083C7.47893 12.1107 7.48746 11.7213 7.50454 11.3403C7.52161 10.9841 7.53868 10.6445 7.56428 10.3048C8.17028 9.90722 8.81042 9.51789 9.4847 9.13685C9.74075 8.98774 10.0053 8.84692 10.2614 8.71438C10.6711 8.49901 11.0808 8.3002 11.4905 8.10139C12.1477 8.40789 12.8134 8.7558 13.4962 9.13685C13.7864 9.30252 14.0681 9.45991 14.3412 9.62558C14.7168 9.84924 15.0752 10.0729 15.4252 10.3048C15.4764 11.0089 15.502 11.7462 15.502 12.5083C15.502 12.9059 15.4935 13.2952 15.4764 13.6763C15.4593 14.0242 15.4423 14.3721 15.4166 14.7117C14.8107 15.1093 14.1705 15.4987 13.4962 15.8797C13.317 15.9791 13.1463 16.0785 12.9671 16.1696C12.5147 16.4182 12.0623 16.6418 11.6185 16.8572C11.5758 16.8738 11.5331 16.8986 11.4905 16.9152C10.8247 16.6004 10.1504 16.2525 9.4847 15.8797ZM5.26832 13.0384C5.0464 12.8645 4.84156 12.6822 4.63671 12.5083C4.91837 12.2681 5.20857 12.0195 5.51584 11.7793C5.77189 11.5805 6.03648 11.3734 6.31814 11.1746C6.30107 11.506 6.29254 11.8456 6.29254 12.1852C6.29254 12.2929 6.29254 12.4006 6.29254 12.5083C6.29254 12.9639 6.30107 13.4029 6.31814 13.8419C5.95113 13.5769 5.59265 13.3118 5.26832 13.0384ZM16.6969 12.8396C16.6969 12.7319 16.6969 12.6243 16.6969 12.5083C16.6969 12.0527 16.6884 11.6137 16.6713 11.1746C17.0383 11.4397 17.3883 11.7131 17.7211 11.9781C17.9345 12.1521 18.1479 12.3343 18.3442 12.5083C18.1223 12.6988 17.8919 12.8976 17.6529 13.0881C17.6187 13.113 17.5846 13.1461 17.5504 13.171C17.2688 13.3946 16.9701 13.6266 16.6628 13.8502C16.6799 13.5189 16.6969 13.1793 16.6969 12.8396ZM7.88008 17.3294C7.8118 16.9566 7.76059 16.5755 7.70938 16.1862C8.07639 16.4099 8.4434 16.6252 8.82749 16.8406C8.84456 16.8572 8.87016 16.8655 8.88723 16.8738C9.28839 17.0974 9.68954 17.3128 10.0992 17.5199C10.0992 17.5199 10.0907 17.5199 10.0907 17.5282C9.66394 17.7021 9.24571 17.8595 8.83602 18.0086C8.77628 18.0335 8.71653 18.05 8.65679 18.0749C8.46048 18.1412 8.26417 18.2074 8.06786 18.2654C7.99958 17.9672 7.93983 17.6524 7.88008 17.3294ZM13.9657 17.9423C13.6072 17.8098 13.2487 17.6773 12.8817 17.5282C12.9329 17.5033 12.9841 17.4785 13.0353 17.4536C13.3853 17.2714 13.7352 17.0808 14.0937 16.8903C14.1961 16.8323 14.2985 16.7744 14.3924 16.7164C14.6912 16.5424 14.9814 16.3685 15.2715 16.1945C15.2203 16.5673 15.1691 16.94 15.1094 17.2879C15.0496 17.6276 14.9814 17.9506 14.9131 18.2737C14.6058 18.166 14.29 18.0583 13.9657 17.9423ZM9.95413 12.5083C9.95413 11.6882 10.6455 11.0172 11.4905 11.0172C12.3354 11.0172 13.0268 11.6882 13.0268 12.5083C13.0268 13.3284 12.3354 13.9993 11.4905 13.9993C10.6455 13.9993 9.95413 13.3284 9.95413 12.5083Z" fill="url(#paint0_linear_17_2)"/>
<defs>
<linearGradient id="paint0_linear_17_2" x1="11.5" y1="0" x2="11.5" y2="25" gradientUnits="userSpaceOnUse">
<stop stop-color="#EF7A1B"/>
<stop offset="1" stop-color="#EF7A1B"/>
</linearGradient>
</defs>
</svg>
